<mxfile host="app.diagrams.net" modified="2024-05-11T07:18:32.315Z" agent="Mozilla/5.0 (Windows NT 10.0; Win64; x64) AppleWebKit/537.36 (KHTML, like Gecko) Chrome/124.0.0.0 Safari/537.36 Edg/124.0.0.0" etag="KD3GTIhZ0T6JwIf8YpVI" version="24.4.0" type="github">
  <diagram name="第 1 页" id="4yoDFyz5mR__BGt32AF6">
    <mxGraphModel dx="718" dy="427" grid="1" gridSize="10" guides="1" tooltips="1" connect="1" arrows="1" fold="1" page="1" pageScale="1" pageWidth="827" pageHeight="1169" math="0" shadow="0">
      <root>
        <mxCell id="0" />
        <mxCell id="1" parent="0" />
      </root>
    </mxGraphModel>
  </diagram>
</mxfile>
